<svg width="152" height="152" viewBox="0 0 152 152" fill="none" xmlns="http://www.w3.org/2000/svg">
<path d="M107.667 101.333C102.389 101.333 97.9028 99.4861 94.2083 95.7917C90.5139 92.0972 88.6667 87.6111 88.6667 82.3333C88.6667 77.0556 90.5139 72.5694 94.2083 68.875C97.9028 65.1806 102.389 63.3333 107.667 63.3333C112.944 63.3333 117.431 65.1806 121.125 68.875C124.819 72.5694 126.667 77.0556 126.667 82.3333C126.667 87.6111 124.819 92.0972 121.125 95.7917C117.431 99.4861 112.944 101.333 107.667 101.333ZM107.667 88.6667C109.461 88.6667 110.965 88.0597 112.179 86.8458C113.393 85.6319 114 84.1278 114 82.3333C114 80.5389 113.393 79.0347 112.179 77.8208C110.965 76.6069 109.461 76 107.667 76C105.872 76 104.368 76.6069 103.154 77.8208C101.94 79.0347 101.333 80.5389 101.333 82.3333C101.333 84.1278 101.94 85.6319 103.154 86.8458C104.368 88.0597 105.872 88.6667 107.667 88.6667ZM69.6667 145.667V127.3C69.6667 125.083 70.1944 122.999 71.25 121.046C72.3056 119.093 73.7833 117.536 75.6833 116.375C79.0611 114.369 82.6236 112.707 86.3708 111.387C90.1181 110.068 93.9444 109.092 97.85 108.458L107.667 120.333L117.483 108.458C121.389 109.092 125.189 110.068 128.883 111.387C132.578 112.707 136.114 114.369 139.492 116.375C141.392 117.536 142.896 119.093 144.004 121.046C145.112 122.999 145.667 125.083 145.667 127.3V145.667H69.6667ZM82.175 133H101.65L93.1 122.55C91.2 123.078 89.3528 123.764 87.5583 124.608C85.7639 125.453 83.9694 126.35 82.175 127.3V133ZM113.683 133H133V127.3C131.311 126.244 129.569 125.321 127.775 124.529C125.981 123.737 124.133 123.078 122.233 122.55L113.683 133ZM31.6667 133C28.1833 133 25.2014 131.76 22.7208 129.279C20.2403 126.799 19 123.817 19 120.333V31.6667C19 28.1833 20.2403 25.2014 22.7208 22.7208C25.2014 20.2403 28.1833 19 31.6667 19H120.333C123.817 19 126.799 20.2403 129.279 22.7208C131.76 25.2014 133 28.1833 133 31.6667V63.3333C131.311 61.2222 129.464 59.2167 127.458 57.3167C125.453 55.4167 123.078 54.15 120.333 53.5167V31.6667H31.6667V120.333H57.95C57.6333 121.494 57.3958 122.656 57.2375 123.817C57.0792 124.978 57 126.139 57 127.3V133H31.6667ZM44.3333 57H88.6667C91.4111 54.8889 94.4194 53.3056 97.6917 52.25C100.964 51.1944 104.289 50.6667 107.667 50.6667V44.3333H44.3333V57ZM44.3333 82.3333H76C76 80.1167 76.2375 77.9528 76.7125 75.8417C77.1875 73.7306 77.8472 71.6722 78.6917 69.6667H44.3333V82.3333ZM44.3333 107.667H66.1833C67.3444 106.717 68.5847 105.872 69.9042 105.133C71.2236 104.394 72.5694 103.708 73.9417 103.075V95H44.3333V107.667ZM31.6667 120.333V31.6667V53.3583V50.6667V120.333Z" fill="#231718"/>
</svg>
