<svg width="100" height="100" viewBox="0 0 100 100" fill="none" xmlns="http://www.w3.org/2000/svg">
<path d="M41.6666 50C37.0833 50 33.1596 48.3681 29.8958 45.1042C26.6319 41.8403 24.9999 37.9167 24.9999 33.3333C24.9999 28.75 26.6319 24.8264 29.8958 21.5625C33.1596 18.2986 37.0833 16.6667 41.6666 16.6667C46.2499 16.6667 50.1735 18.2986 53.4374 21.5625C56.7013 24.8264 58.3333 28.75 58.3333 33.3333C58.3333 37.9167 56.7013 41.8403 53.4374 45.1042C50.1735 48.3681 46.2499 50 41.6666 50ZM8.33325 83.3333V71.6667C8.33325 69.375 8.92353 67.2222 10.1041 65.2083C11.2846 63.1944 12.9166 61.6667 14.9999 60.625C18.5416 58.8194 22.5346 57.2917 26.9791 56.0417C31.4235 54.7917 36.3194 54.1667 41.6666 54.1667H43.1249C43.5416 54.1667 43.9583 54.2361 44.3749 54.375C43.8194 55.625 43.3506 56.9271 42.9687 58.2812C42.5867 59.6354 42.2916 61.0417 42.0833 62.5H41.6666C36.736 62.5 32.3089 63.125 28.3853 64.375C24.4617 65.625 21.2499 66.875 18.7499 68.125C18.1249 68.4722 17.6214 68.9583 17.2395 69.5833C16.8576 70.2083 16.6666 70.9028 16.6666 71.6667V75H42.9166C43.3333 76.4583 43.8888 77.8993 44.5833 79.3229C45.2777 80.7465 46.0416 82.0833 46.8749 83.3333H8.33325ZM66.6666 87.5L65.4166 81.25C64.5833 80.9028 63.802 80.5382 63.0728 80.1562C62.3437 79.7743 61.5971 79.3056 60.8333 78.75L54.7916 80.625L50.6249 73.5417L55.4166 69.375C55.2777 68.4028 55.2083 67.5 55.2083 66.6667C55.2083 65.8333 55.2777 64.9306 55.4166 63.9583L50.6249 59.7917L54.7916 52.7083L60.8333 54.5833C61.5971 54.0278 62.3437 53.559 63.0728 53.1771C63.802 52.7951 64.5833 52.4306 65.4166 52.0833L66.6666 45.8333H74.9999L76.2499 52.0833C77.0833 52.4306 77.8645 52.8125 78.5937 53.2292C79.3228 53.6458 80.0694 54.1667 80.8333 54.7917L86.8749 52.7083L91.0416 60L86.2499 64.1667C86.3888 65 86.4583 65.8681 86.4583 66.7708C86.4583 67.6736 86.3888 68.5417 86.2499 69.375L91.0416 73.5417L86.8749 80.625L80.8333 78.75C80.0694 79.3056 79.3228 79.7743 78.5937 80.1562C77.8645 80.5382 77.0833 80.9028 76.2499 81.25L74.9999 87.5H66.6666ZM70.8333 75C73.1249 75 75.0867 74.184 76.7187 72.5521C78.3506 70.9201 79.1666 68.9583 79.1666 66.6667C79.1666 64.375 78.3506 62.4132 76.7187 60.7812C75.0867 59.1493 73.1249 58.3333 70.8333 58.3333C68.5416 58.3333 66.5798 59.1493 64.9478 60.7812C63.3159 62.4132 62.4999 64.375 62.4999 66.6667C62.4999 68.9583 63.3159 70.9201 64.9478 72.5521C66.5798 74.184 68.5416 75 70.8333 75ZM41.6666 41.6667C43.9583 41.6667 45.9201 40.8507 47.552 39.2187C49.1839 37.5868 49.9999 35.625 49.9999 33.3333C49.9999 31.0417 49.1839 29.0799 47.552 27.4479C45.9201 25.816 43.9583 25 41.6666 25C39.3749 25 37.4131 25.816 35.7812 27.4479C34.1492 29.0799 33.3333 31.0417 33.3333 33.3333C33.3333 35.625 34.1492 37.5868 35.7812 39.2187C37.4131 40.8507 39.3749 41.6667 41.6666 41.6667Z" fill="#231718"/>
</svg>
