<svg width="27" height="23" viewBox="0 0 27 23" fill="none" xmlns="http://www.w3.org/2000/svg">
<path d="M21.6 23L19.71 21.1059L21.8363 18.9412H16.2V16.2353H21.8363L19.71 14.0706L21.6 12.1765L27 17.5882L21.6 23ZM2.7 18.9412C1.9575 18.9412 1.32188 18.6762 0.793125 18.1463C0.264375 17.6164 0 16.9794 0 16.2353V2.70588C0 1.96176 0.264375 1.32475 0.793125 0.794853C1.32188 0.264951 1.9575 0 2.7 0H20.25C20.9925 0 21.6281 0.264951 22.1569 0.794853C22.6856 1.32475 22.95 1.96176 22.95 2.70588V9.60588C22.725 9.56078 22.5 9.52696 22.275 9.50441C22.05 9.48186 21.825 9.47059 21.6 9.47059C21.375 9.47059 21.15 9.47623 20.925 9.4875C20.7 9.49877 20.475 9.52696 20.25 9.57206V4.6L11.34 10.8235L2.7 4.63382V16.2353H13.6013C13.5563 16.4608 13.5281 16.6863 13.5169 16.9118C13.5056 17.1373 13.5 17.3627 13.5 17.5882C13.5 17.8137 13.5113 18.0392 13.5338 18.2647C13.5563 18.4902 13.59 18.7157 13.635 18.9412H2.7ZM4.6575 2.70588L11.34 7.50882L18.225 2.70588H4.6575Z" fill="#C74228"/>
</svg>
