<svg width="100" height="100" viewBox="0 0 100 100" fill="none" xmlns="http://www.w3.org/2000/svg">
<path d="M69.75 89.3182L75.5 84.0909L67.5 76.8182L61.75 82.0455C60.5833 83.1061 60 84.3182 60 85.6818C60 87.0455 60.5833 88.2576 61.75 89.3182C62.9167 90.3788 64.25 90.9091 65.75 90.9091C67.25 90.9091 68.5833 90.3788 69.75 89.3182ZM82.5 77.7273L88.25 72.5C89.4167 71.4394 90 70.2273 90 68.8636C90 67.5 89.4167 66.2879 88.25 65.2273C87.0833 64.1667 85.75 63.6364 84.25 63.6364C82.75 63.6364 81.4167 64.1667 80.25 65.2273L74.5 70.4545L82.5 77.7273ZM76.875 95.7955C73.7917 98.5985 70.0833 100 65.75 100C61.4167 100 57.7083 98.5985 54.625 95.7955C51.5417 92.9924 50 89.6212 50 85.6818C50 81.7424 51.5417 78.3712 54.625 75.5682L73.125 58.75C76.2083 55.947 79.9167 54.5455 84.25 54.5455C88.5833 54.5455 92.2917 55.947 95.375 58.75C98.4583 61.553 100 64.9242 100 68.8636C100 72.803 98.4583 76.1742 95.375 78.9773L76.875 95.7955ZM10 90.9091C7.25 90.9091 4.89583 90.0189 2.9375 88.2386C0.979167 86.4583 0 84.3182 0 81.8182V18.1818C0 15.6818 0.979167 13.5417 2.9375 11.7614C4.89583 9.98106 7.25 9.09091 10 9.09091H31C32.0833 6.36364 33.8958 4.16667 36.4375 2.5C38.9792 0.833333 41.8333 0 45 0C48.1667 0 51.0208 0.833333 53.5625 2.5C56.1042 4.16667 57.9167 6.36364 59 9.09091H80C82.75 9.09091 85.1042 9.98106 87.0625 11.7614C89.0208 13.5417 90 15.6818 90 18.1818V46.0227C88.3333 45.6439 86.6667 45.4545 85 45.4545C83.3333 45.4545 81.6667 45.5682 80 45.7955V18.1818H10V81.8182H40.375C40.125 83.3333 40 84.8485 40 86.3636C40 87.8788 40.2083 89.3939 40.625 90.9091H10ZM45 14.7727C46.0833 14.7727 46.9792 14.4508 47.6875 13.8068C48.3958 13.1629 48.75 12.3485 48.75 11.3636C48.75 10.3788 48.3958 9.56439 47.6875 8.92045C46.9792 8.27652 46.0833 7.95455 45 7.95455C43.9167 7.95455 43.0208 8.27652 42.3125 8.92045C41.6042 9.56439 41.25 10.3788 41.25 11.3636C41.25 12.3485 41.6042 13.1629 42.3125 13.8068C43.0208 14.4508 43.9167 14.7727 45 14.7727ZM20 36.3636V27.2727H70V36.3636H20ZM20 54.5455V45.4545H70V49.3182C69.3333 49.697 68.6875 50.1326 68.0625 50.625C67.4375 51.1174 66.7917 51.6667 66.125 52.2727L63.625 54.5455H20ZM20 72.7273V63.6364H53.625L47.5 69.2045C46.8333 69.8106 46.2292 70.3977 45.6875 70.9659C45.1458 71.5341 44.6667 72.1212 44.25 72.7273H20Z" fill="black"/>
</svg>
