<svg width="75" height="75" viewBox="0 0 75 75" fill="none" xmlns="http://www.w3.org/2000/svg">
<path d="M23.4375 75C16.9097 75 11.3715 72.7257 6.82292 68.1771C2.27431 63.6285 0 58.0903 0 51.5625C0 48.4375 0.590278 45.4514 1.77083 42.6042C2.95139 39.7569 4.65278 37.2222 6.875 35L35 6.875C37.2222 4.65278 39.7569 2.95139 42.6042 1.77083C45.4514 0.590278 48.4375 0 51.5625 0C58.0903 0 63.6285 2.27431 68.1771 6.82292C72.7257 11.3715 75 16.9097 75 23.4375C75 26.5625 74.4097 29.5486 73.2292 32.3958C72.0486 35.2431 70.3472 37.7778 68.125 40L40 68.125C37.7778 70.3472 35.2431 72.0486 32.3958 73.2292C29.5486 74.4097 26.5625 75 23.4375 75ZM51.1458 45.2083L62.2917 34.1667C63.6806 32.7778 64.7569 31.1458 65.5208 29.2708C66.2847 27.3958 66.6667 25.4514 66.6667 23.4375C66.6667 19.2708 65.191 15.7118 62.2396 12.7604C59.2882 9.80903 55.7292 8.33333 51.5625 8.33333C49.5486 8.33333 47.6042 8.71528 45.7292 9.47917C43.8542 10.2431 42.2222 11.3194 40.8333 12.7083L29.7917 23.8542L51.1458 45.2083ZM23.4375 66.6667C25.4514 66.6667 27.3958 66.2847 29.2708 65.5208C31.1458 64.7569 32.7778 63.6806 34.1667 62.2917L45.2083 51.1458L23.8542 29.7917L12.7083 40.8333C11.3194 42.2222 10.2431 43.8542 9.47917 45.7292C8.71528 47.6042 8.33333 49.5486 8.33333 51.5625C8.33333 55.7292 9.80903 59.2882 12.7604 62.2396C15.7118 65.191 19.2708 66.6667 23.4375 66.6667Z" fill="#E6583C"/>
</svg>
