<svg width="100" height="100" viewBox="0 0 100 100" fill="none" xmlns="http://www.w3.org/2000/svg">
<path d="M12.4999 20.8333V12.5H62.4999V20.8333H12.4999ZM31.2499 72.9167H43.7499V62.5H54.1666V50H43.7499V39.5833H31.2499V50H20.8333V62.5H31.2499V72.9167ZM16.6666 87.5C14.3749 87.5 12.4131 86.684 10.7812 85.0521C9.14922 83.4201 8.33325 81.4583 8.33325 79.1667V33.3333C8.33325 31.0417 9.14922 29.0799 10.7812 27.4479C12.4131 25.816 14.3749 25 16.6666 25H58.3333C60.6249 25 62.5867 25.816 64.2187 27.4479C65.8506 29.0799 66.6666 31.0417 66.6666 33.3333V79.1667C66.6666 81.4583 65.8506 83.4201 64.2187 85.0521C62.5867 86.684 60.6249 87.5 58.3333 87.5H16.6666ZM16.6666 79.1667H58.3333V33.3333H16.6666V79.1667ZM79.1666 57.2917C76.736 56.1111 74.7395 54.1493 73.177 51.4062C71.6145 48.6632 70.8333 45.4167 70.8333 41.6667C70.8333 36.9444 72.0312 32.9861 74.427 29.7917C76.8228 26.5972 79.7916 25 83.3333 25C86.8749 25 89.8437 26.5972 92.2395 29.7917C94.6353 32.9861 95.8333 36.9444 95.8333 41.6667C95.8333 45.4167 95.052 48.6632 93.4895 51.4062C91.927 54.1493 89.9305 56.1111 87.4999 57.2917V83.3333C87.4999 84.5139 87.1006 85.5035 86.302 86.3021C85.5034 87.1007 84.5138 87.5 83.3333 87.5C82.1527 87.5 81.1631 87.1007 80.3645 86.3021C79.5659 85.5035 79.1666 84.5139 79.1666 83.3333V57.2917ZM83.3333 50C84.1666 50 85.0694 49.2535 86.0416 47.7604C87.0138 46.2674 87.4999 44.2361 87.4999 41.6667C87.4999 39.0972 87.0138 37.066 86.0416 35.5729C85.0694 34.0799 84.1666 33.3333 83.3333 33.3333C82.4999 33.3333 81.5971 34.0799 80.6249 35.5729C79.6527 37.066 79.1666 39.0972 79.1666 41.6667C79.1666 44.2361 79.6527 46.2674 80.6249 47.7604C81.5971 49.2535 82.4999 50 83.3333 50Z" fill="#231718"/>
</svg>
