<svg width="100" height="100" viewBox="0 0 100 100" fill="none" xmlns="http://www.w3.org/2000/svg">
<path d="M29.1666 75H37.4999V66.6667H45.8332V58.3333H37.4999V50H29.1666V58.3333H20.8333V66.6667H29.1666V75ZM54.1666 60.4167H79.1666V54.1667H54.1666V60.4167ZM54.1666 72.9167H70.8332V66.6667H54.1666V72.9167ZM16.6666 91.6667C14.3749 91.6667 12.4131 90.8507 10.7812 89.2188C9.14922 87.5868 8.33325 85.625 8.33325 83.3333V37.5C8.33325 35.2083 9.14922 33.2465 10.7812 31.6146C12.4131 29.9826 14.3749 29.1667 16.6666 29.1667H37.4999V16.6667C37.4999 14.375 38.3159 12.4132 39.9478 10.7813C41.5798 9.14932 43.5416 8.33334 45.8332 8.33334H54.1666C56.4582 8.33334 58.4201 9.14932 60.052 10.7813C61.6839 12.4132 62.4999 14.375 62.4999 16.6667V29.1667H83.3332C85.6249 29.1667 87.5867 29.9826 89.2187 31.6146C90.8506 33.2465 91.6666 35.2083 91.6666 37.5V83.3333C91.6666 85.625 90.8506 87.5868 89.2187 89.2188C87.5867 90.8507 85.6249 91.6667 83.3332 91.6667H16.6666ZM16.6666 83.3333H83.3332V37.5H62.4999C62.4999 39.7917 61.6839 41.7535 60.052 43.3854C58.4201 45.0174 56.4582 45.8333 54.1666 45.8333H45.8332C43.5416 45.8333 41.5798 45.0174 39.9478 43.3854C38.3159 41.7535 37.4999 39.7917 37.4999 37.5H16.6666V83.3333ZM45.8332 37.5H54.1666V16.6667H45.8332V37.5Z" fill="#231718"/>
</svg>
