<svg width="100" height="100" viewBox="0 0 100 100" fill="none" xmlns="http://www.w3.org/2000/svg">
<path d="M8.33325 37.5V25C8.33325 22.7084 9.14922 20.7465 10.7812 19.1146C12.4131 17.4827 14.3749 16.6667 16.6666 16.6667H83.3332C85.6249 16.6667 87.5867 17.4827 89.2187 19.1146C90.8506 20.7465 91.6666 22.7084 91.6666 25V37.5H83.3332V25H16.6666V37.5H8.33325ZM16.6666 83.3334C14.3749 83.3334 12.4131 82.5174 10.7812 80.8854C9.14922 79.2535 8.33325 77.2917 8.33325 75V62.5H16.6666V75H83.3332V62.5H91.6666V75C91.6666 77.2917 90.8506 79.2535 89.2187 80.8854C87.5867 82.5174 85.6249 83.3334 83.3332 83.3334H16.6666ZM41.6666 70.8334C42.4305 70.8334 43.1596 70.6424 43.8541 70.2604C44.5485 69.8785 45.0694 69.3056 45.4166 68.5417L58.3332 42.7084L62.9166 51.875C63.2638 52.6389 63.7846 53.2118 64.4791 53.5938C65.1735 53.9757 65.9027 54.1667 66.6666 54.1667H91.6666V45.8334H69.2707L62.0832 31.4584C61.736 30.6945 61.2152 30.1563 60.5207 29.8438C59.8263 29.5313 59.0971 29.375 58.3332 29.375C57.5694 29.375 56.8402 29.5313 56.1457 29.8438C55.4513 30.1563 54.9305 30.6945 54.5832 31.4584L41.6666 57.2917L37.0833 48.125C36.736 47.3611 36.2152 46.7882 35.5208 46.4063C34.8263 46.0243 34.0971 45.8334 33.3333 45.8334H8.33325V54.1667H30.7291L37.9166 68.5417C38.2638 69.3056 38.7846 69.8785 39.4791 70.2604C40.1735 70.6424 40.9027 70.8334 41.6666 70.8334Z" fill="#231718"/>
</svg>
