<svg width="100" height="100" viewBox="0 0 100 100" fill="none" xmlns="http://www.w3.org/2000/svg">
<path d="M75.0001 58.3333V45.8333H62.5001V37.5H75.0001V25H83.3334V37.5H95.8334V45.8333H83.3334V58.3333H75.0001ZM37.5001 50C32.9167 50 28.9931 48.3681 25.7292 45.1042C22.4654 41.8403 20.8334 37.9167 20.8334 33.3333C20.8334 28.75 22.4654 24.8264 25.7292 21.5625C28.9931 18.2986 32.9167 16.6667 37.5001 16.6667C42.0834 16.6667 46.007 18.2986 49.2709 21.5625C52.5348 24.8264 54.1668 28.75 54.1668 33.3333C54.1668 37.9167 52.5348 41.8403 49.2709 45.1042C46.007 48.3681 42.0834 50 37.5001 50ZM4.16675 83.3333V71.6667C4.16675 69.3056 4.77439 67.1354 5.98966 65.1563C7.20494 63.1771 8.81953 61.6667 10.8334 60.625C15.139 58.4722 19.514 56.8576 23.9584 55.7813C28.4029 54.7049 32.9167 54.1667 37.5001 54.1667C42.0834 54.1667 46.5973 54.7049 51.0418 55.7813C55.4862 56.8576 59.8612 58.4722 64.1668 60.625C66.1806 61.6667 67.7952 63.1771 69.0105 65.1563C70.2258 67.1354 70.8334 69.3056 70.8334 71.6667V83.3333H4.16675ZM12.5001 75H62.5001V71.6667C62.5001 70.9028 62.3091 70.2083 61.9272 69.5833C61.5452 68.9583 61.0418 68.4722 60.4168 68.125C56.6668 66.25 52.882 64.8438 49.0626 63.9063C45.2431 62.9688 41.389 62.5 37.5001 62.5C33.6112 62.5 29.757 62.9688 25.9376 63.9063C22.1181 64.8438 18.3334 66.25 14.5834 68.125C13.9584 68.4722 13.4549 68.9583 13.073 69.5833C12.6911 70.2083 12.5001 70.9028 12.5001 71.6667V75ZM37.5001 41.6667C39.7917 41.6667 41.7536 40.8507 43.3855 39.2188C45.0174 37.5868 45.8334 35.625 45.8334 33.3333C45.8334 31.0417 45.0174 29.0799 43.3855 27.4479C41.7536 25.816 39.7917 25 37.5001 25C35.2084 25 33.2466 25.816 31.6147 27.4479C29.9827 29.0799 29.1667 31.0417 29.1667 33.3333C29.1667 35.625 29.9827 37.5868 31.6147 39.2188C33.2466 40.8507 35.2084 41.6667 37.5001 41.6667Z" fill="#231718"/>
</svg>
